<?xml version="1.0" encoding="UTF-8" standalone="no"?>
<!-- Created with Inkscape (http://www.inkscape.org/) -->

<svg
   xmlns:dc="http://purl.org/dc/elements/1.1/"
   xmlns:cc="http://creativecommons.org/ns#"
   xmlns:rdf="http://www.w3.org/1999/02/22-rdf-syntax-ns#"
   xmlns:svg="http://www.w3.org/2000/svg"
   xmlns="http://www.w3.org/2000/svg"
   xmlns:sodipodi="http://sodipodi.sourceforge.net/DTD/sodipodi-0.dtd"
   xmlns:inkscape="http://www.inkscape.org/namespaces/inkscape"
   width="400"
   height="400"
   id="svg2"
   version="1.1"
   inkscape:version="0.47 r22583"
   sodipodi:docname="icon_400.svg"
   inkscape:export-filename="/home/jonathan-h/git/tk-3de4/icon_256.png"
   inkscape:export-xdpi="57.599998"
   inkscape:export-ydpi="57.599998">
  <defs
     id="defs4">
    <inkscape:perspective
       sodipodi:type="inkscape:persp3d"
       inkscape:vp_x="0 : 526.18109 : 1"
       inkscape:vp_y="0 : 1000 : 0"
       inkscape:vp_z="744.09448 : 526.18109 : 1"
       inkscape:persp3d-origin="372.04724 : 350.78739 : 1"
       id="perspective10" />
    <inkscape:perspective
       id="perspective2824"
       inkscape:persp3d-origin="0.5 : 0.33333333 : 1"
       inkscape:vp_z="1 : 0.5 : 1"
       inkscape:vp_y="0 : 1000 : 0"
       inkscape:vp_x="0 : 0.5 : 1"
       sodipodi:type="inkscape:persp3d" />
  </defs>
  <sodipodi:namedview
     id="base"
     pagecolor="#161616"
     bordercolor="#666666"
     borderopacity="1.0"
     inkscape:pageopacity="1"
     inkscape:pageshadow="2"
     inkscape:zoom="1.979899"
     inkscape:cx="269.28187"
     inkscape:cy="193.17207"
     inkscape:document-units="px"
     inkscape:current-layer="g2870"
     showgrid="false"
     inkscape:window-width="1680"
     inkscape:window-height="974"
     inkscape:window-x="1920"
     inkscape:window-y="25"
     inkscape:window-maximized="1" />
  <metadata
     id="metadata7">
    <rdf:RDF>
      <cc:Work
         rdf:about="">
        <dc:format>image/svg+xml</dc:format>
        <dc:type
           rdf:resource="http://purl.org/dc/dcmitype/StillImage" />
        <dc:title></dc:title>
      </cc:Work>
    </rdf:RDF>
  </metadata>
  <g
     inkscape:label="Layer 1"
     inkscape:groupmode="layer"
     id="layer1"
     transform="translate(-175,-343.79074)">
    <g
       id="g2870">
      <path
         style="fill:#747474"
         d="m 230,596.1395 c -6.49897,-0.33235 -24.47614,-2.23663 -27.88852,-2.95416 l -2.38851,-0.50223 0.7003,-12.19619 c 0.41287,-7.1904 1.18799,-12.67616 1.88851,-13.3656 0.87823,-0.86433 3.01442,-0.90826 8.18822,-0.16837 10.66965,1.52585 66.88409,2.23778 69.42259,0.87922 2.42042,-1.29537 2.90688,-7.10814 0.74501,-8.90234 -0.88186,-0.73187 -10.43452,-1.19596 -28.25,-1.37244 l -26.9176,-0.26665 0,-13 0,-13 27,-0.5 c 14.85,-0.275 27.5625,-0.86406 28.25,-1.30902 2.03766,-1.3188 1.55228,-7.45884 -0.68426,-8.6558 -2.43647,-1.30396 -51.54173,-1.4001 -59.13208,-0.11577 -11.52799,1.95059 -18.67196,2.20495 -19.25501,0.68556 -0.30128,-0.78514 -0.86308,-6.81782 -1.24843,-13.40595 -0.65495,-11.19724 -0.5777,-12.01623 1.18457,-12.55823 8.99264,-2.76576 65.64235,-4.06369 86.13422,-1.97347 12.81629,1.30729 16.22632,2.79866 20.58755,9.00393 5.96494,8.48708 6.02578,28.64953 0.11341,37.58372 -2.16752,3.27534 -2.48137,4.41869 -1.55737,5.67351 7.29979,9.91334 7.99825,30.91772 1.34913,40.57152 -4.24478,6.16295 -9.61172,8.30386 -23.75312,9.47526 -10.81012,0.89546 -40.32598,1.09778 -54.48861,0.3735 z m 48.5,-1.41565 c 8.25,-0.59477 16.69496,-1.51833 18.76658,-2.05236 9.26339,-2.38796 14.12466,-11.17117 14.0655,-25.41318 -0.0374,-9.00645 -1.37484,-14.22841 -5.03503,-19.65911 l -2.48802,-3.69153 2.47172,-3.30847 c 3.55928,-4.76419 5.05203,-10.2577 5.11084,-18.80846 0.0682,-9.92357 -1.86302,-16.36107 -6.30905,-21.03003 -4.34742,-4.56541 -7.67146,-5.49888 -23.58254,-6.62252 -21.56267,-1.52277 -68.51799,-0.13793 -78.26423,2.30822 l -2.43246,0.61051 0.72132,10.11691 c 1.03815,14.56063 0.91932,14.37552 8.62328,13.43276 20.44522,-2.50194 66.66772,-2.92055 71.10209,-0.64394 2.63553,1.35309 2.44928,9.38348 -0.25115,10.82871 -1.18347,0.63337 -12.82874,1.32588 -28.5,1.69481 L 226,533.11 l 0,11.23338 c 0,9.32089 0.2693,11.33672 1.58179,11.84037 0.86998,0.33385 13.15498,0.60699 27.3,0.60699 18.66972,0 26.04709,0.32888 26.91821,1.2 1.8107,1.8107 1.50605,9.30111 -0.44413,10.91962 -2.25258,1.86947 -50.32051,1.78522 -66.09713,-0.11586 -6.18269,-0.74502 -11.50367,-1.09216 -11.82439,-0.77144 -0.32073,0.32072 -1.07186,5.4154 -1.6692,11.3215 -1.32633,13.11401 -1.41253,13.01032 11.55561,13.89961 5.04858,0.3462 13.67924,0.99895 19.17924,1.45056 14.93615,1.2264 29.26672,1.23547 46,0.0291 z m -33,-4.38497 c -0.55,-0.24539 -8.67233,-0.89863 -18.04963,-1.45165 -9.37729,-0.55301 -17.81479,-1.2991 -18.75,-1.65797 -1.29859,-0.49832 -1.69675,-1.86773 -1.68506,-5.79551 0.0241,-8.10709 -0.60838,-7.87578 17.92534,-6.55542 19.67997,1.40202 55.54814,0.83418 58.799,-0.93087 6.85965,-3.72443 6.85965,-17.4852 0,-21.36377 -1.566,-0.88544 -9.75927,-1.42073 -27.23965,-1.77964 l -25,-0.51331 0,-6 0,-6 25,-0.53004 c 17.23992,-0.36552 25.69519,-0.91792 27.23965,-1.77965 7.30658,-4.07667 6.73525,-18.08547 -0.86664,-21.2498 -3.57841,-1.48953 -35.56017,-1.97177 -62.37301,-0.94051 l -13,0.5 -0.2945,-6.12594 c -0.24224,-5.03899 0.0102,-6.24284 1.42254,-6.78482 5.7252,-2.19697 53.29325,-3.2239 75.29389,-1.6255 14.17073,1.02954 16.20002,1.95644 19.82807,9.05669 1.78981,3.50274 2.24551,6.04738 2.22804,12.44146 -0.0264,9.65521 -2.0977,15.00212 -7.36919,19.02289 -4.49414,3.42784 -4.5369,5.03511 -0.202,7.59276 5.42391,3.20019 7.08893,7.76059 7.0912,19.42246 0.003,17.16365 -3.01312,20.34795 -20.49805,21.63858 -14.93166,1.10217 -38.31847,1.93673 -39.5,1.40956 z m 100,5.43641 c -19.18744,-1.47515 -26.04662,-2.29117 -27.25,-3.24189 -0.96849,-0.76515 -1.25,-11.64938 -1.25,-48.32992 0,-44.07131 0.12091,-47.40585 1.75,-48.26112 5.79864,-3.04427 67.21939,-4.72169 90.63909,-2.47538 10.45319,1.00263 12.37897,1.48466 15.94535,3.99121 2.37061,1.66612 5.1179,4.91233 6.61092,7.81147 2.55349,4.95837 2.55479,4.97464 2.88298,35.99085 0.36278,34.28449 -0.13892,38.89798 -4.9527,45.5432 -4.3338,5.98264 -9.29849,7.83613 -24.06518,8.98439 -13.66949,1.06294 -46.40857,1.05599 -60.31046,-0.0128 z m 54.5,-1.04755 c 8.525,-0.58947 17.19496,-1.51174 19.26658,-2.04949 4.88128,-1.26708 10.13147,-5.92582 12.03253,-10.67703 1.95661,-4.89006 3.09955,-40.16948 1.94186,-59.93997 -0.79113,-13.51052 -0.98342,-14.44526 -3.80577,-18.5 -4.33337,-6.22556 -8.73152,-7.97624 -22.90975,-9.11922 -23.78806,-1.91768 -78.8576,-0.3765 -86.19241,2.41219 L 318,497.74124 l 0,46.48957 c 0,43.49683 0.11423,46.5507 1.7745,47.43925 0.97597,0.52232 10.76347,1.49189 21.75,2.1546 10.98652,0.66271 20.163,1.37619 20.39217,1.5855 0.83223,0.76015 22.95313,0.36376 38.08333,-0.68242 z m -35,-4.44231 c -0.825,-0.23145 -9.15,-0.89646 -18.5,-1.4778 -9.35,-0.58133 -18.2375,-1.32541 -19.75,-1.65351 l -2.75,-0.59653 0,-42.28014 0,-42.28013 8.75,-1.34001 c 12.16716,-1.86333 75.58328,-1.8596 82.97971,0.005 6.0445,1.52369 10.81001,6.12062 11.77365,11.35717 0.3311,1.79926 0.4658,17.52671 0.29932,34.94989 -0.2884,30.18392 -0.39995,31.80871 -2.36447,34.43821 -4.32359,5.78713 -6.64656,6.72368 -18.69061,7.5355 -15.83368,1.06726 -39.9629,1.84318 -41.7476,1.34247 z m 29.80456,-15.37817 c 9.33439,-0.69849 10.55832,-1.02467 13,-3.46458 l 2.69544,-2.69349 0.31748,-22.34984 C 411.2739,514.26899 411.43171,514.49689 388,513.4479 c -16.32972,-0.73105 -43.5137,0.69436 -45.55529,2.38872 -2.15006,1.7844 -2.14488,55.12814 0.006,56.91282 2.771,2.29973 33.52095,3.56711 52.35432,2.15782 z M 350.5,568.93752 l -3,-0.66539 -0.26814,-23.75855 -0.26814,-23.75855 2.70875,-1.02986 c 1.67585,-0.63716 12.15607,-0.91634 27.48421,-0.73215 22.03449,0.26478 24.96922,0.49167 26.52679,2.05083 1.55972,1.56132 1.75131,4.10447 1.75131,23.24689 0,19.14219 -0.1916,21.68559 -1.75127,23.24689 -1.56343,1.56507 -4.34877,1.76985 -25.96739,1.9092 -13.31887,0.0858 -25.56612,-0.14334 -27.21612,-0.50931 z m 51.84826,-2.01922 C 403.78906,565.72112 404,562.8314 404,544.29074 c 0,-18.54079 -0.21093,-21.43037 -1.65176,-22.62756 -1.262,-1.04858 -6.74836,-1.44008 -23.25,-1.65907 -11.87903,-0.15765 -23.62324,0.0798 -26.09824,0.52768 l -4.5,0.8143 0,22.97233 0,22.97232 4,0.64841 c 2.2,0.35662 13.94422,0.58162 26.09826,0.5 17.08898,-0.11477 22.47268,-0.45952 23.75,-1.52085 z M 467,595.83876 c -16.59542,-1.41908 -21.82561,-3.92487 -25.94242,-12.42908 -4.47116,-9.23618 -3.44187,-28.0574 1.94837,-35.62729 2.47881,-3.48117 2.49036,-3.26832 -0.42109,-7.76309 -4.78261,-7.38352 -5.88323,-24.48353 -2.15081,-33.41647 3.85179,-9.21863 9.23364,-12.17497 24.56595,-13.4945 20.36948,-1.75304 76.12911,-0.21631 84.39366,2.32588 1.77001,0.54446 1.84983,1.35795 1.22242,12.45958 -0.36917,6.5324 -0.94614,12.59351 -1.28215,13.46913 -0.65446,1.70549 -2.23176,1.65456 -21.33393,-0.6889 -4.675,-0.57353 -19.4295,-0.89439 -32.78777,-0.71303 -26.35338,0.35779 -26.16445,0.31437 -26.19692,6.02073 -0.008,1.48004 0.54719,3.05504 1.23469,3.5 0.6875,0.44496 12.725,1.03402 26.75,1.30902 l 25.5,0.5 0,13 0,13 -25.5,0.5 c -14.025,0.275 -26.0625,0.86406 -26.75,1.30902 -0.6875,0.44496 -1.24311,2.01996 -1.23469,3.5 0.0326,5.72531 -0.24936,5.66291 27.19698,6.01985 14.66633,0.19073 29.0679,-0.13744 34.28771,-0.78131 18.91071,-2.3327 18.18566,-2.30911 18.8366,-0.61279 0.71028,1.85096 2.15532,25.53618 1.56344,25.62581 -20.53293,3.10933 -64.26446,4.66649 -83.90004,2.98744 z m 64.45237,-2.06942 c 8.22381,-0.61866 15.81161,-1.5847 16.8618,-2.14674 1.75789,-0.94079 1.85213,-1.78608 1.18746,-10.65154 -1.03797,-13.8445 -1.1419,-14.02145 -7.66304,-13.04563 -19.22465,2.87677 -69.58988,2.97117 -72.4253,0.13574 -2.17604,-2.17604 -1.82987,-8.97712 0.52097,-10.23525 1.17582,-0.62928 11.14247,-1.03518 25.41821,-1.03518 12.91618,0 24.19576,-0.27314 25.06574,-0.60699 C 521.73069,555.68011 522,553.66431 522,544.34392 l 0,-11.23285 -25.03498,-0.6437 c -14.27115,-0.36695 -25.87985,-1.09586 -27,-1.69535 C 468.52821,530.00306 468,528.67381 468,525.82698 c 0,-7.07582 -0.1695,-7.03624 30.12988,-7.03624 14.84286,0 29.99821,0.42019 33.67857,0.93375 16.67493,2.32685 15.91279,2.38288 16.55797,-1.21727 0.31703,-1.76907 0.87514,-7.32986 1.24024,-12.35732 l 0.66382,-9.14084 -2.88524,-0.61877 c -2.87267,-0.61608 -21.64141,-2.03494 -43.21777,-3.26715 -12.13832,-0.69321 -44.06733,1.09172 -50.66747,2.83247 -5.34785,1.41047 -10.79189,7.23438 -12.51482,13.38806 -2.91618,10.41558 -0.73023,27.65286 4.05612,31.98445 2.50436,2.26641 2.46417,2.91892 -0.41753,6.77934 -3.45951,4.63446 -4.88341,10.01529 -4.9391,18.66459 -0.0652,10.11995 1.79076,16.38557 6.23279,21.042 4.08382,4.28092 8.78415,5.90842 17.58254,6.088 3.3,0.0674 8.925,0.4822 12.5,0.92188 7.96906,0.98011 35.31999,0.45995 55.45237,-1.05459 z M 484.5,590.31306 c -0.55,-0.25639 -7.45267,-0.87092 -15.33928,-1.36564 -16.32171,-1.02384 -18.0904,-1.76541 -21.97909,-9.21522 -2.04372,-3.9153 -2.27053,-5.50766 -1.91453,-13.44146 0.47015,-10.47749 2.26529,-14.96774 7.30455,-18.27105 4.30277,-2.82053 4.33505,-4.76144 0.12053,-7.24806 -4.93004,-2.9088 -6.95217,-7.94184 -7.42508,-18.48089 -0.356,-7.9338 -0.12919,-9.52616 1.91453,-13.44146 3.70865,-7.10492 5.96682,-8.19105 18.9759,-9.12704 21.63646,-1.55672 70.58524,-0.50238 76.16993,1.64066 1.29237,0.49593 1.67254,1.93585 1.67254,6.33483 0,3.13115 -0.45853,6.15154 -1.01896,6.71197 -0.67555,0.67555 -3.28744,0.70727 -7.75,0.0941 -11.30236,-1.55292 -63.16314,-1.4528 -66.91088,0.12918 -5.54928,2.34244 -7.75088,9.79778 -4.90482,16.60937 2.3544,5.63486 3.77265,5.94568 29.08466,6.37409 15.76108,0.26676 23.23123,0.74886 23.73469,1.53178 0.40408,0.62837 0.73468,2.9425 0.73468,5.1425 0,2.2 -0.3306,4.51413 -0.73468,5.1425 -0.50346,0.78292 -7.97361,1.26502 -23.73469,1.53178 -25.31201,0.42841 -26.73026,0.73923 -29.08466,6.37409 -2.84316,6.80465 -0.64071,14.28721 4.87824,16.57323 3.3456,1.3858 37.91518,1.87005 62.70642,0.8784 l 12.5,-0.5 0.2945,6.12594 c 0.24224,5.03899 -0.0102,6.24284 -1.42254,6.78482 -3.43872,1.31956 -55.68955,4.12889 -57.87196,3.11156 z"
         id="path2874" />
      <path
         style="fill:#ffffff;fill-opacity:1"
         d="m 232.5,594.69473 c -5.5,-0.45161 -14.13066,-1.10436 -19.17925,-1.45056 -12.96813,-0.88929 -12.88193,-0.7856 -11.5556,-13.89961 0.59734,-5.9061 1.34847,-11.00078 1.6692,-11.3215 0.32072,-0.32072 5.6417,0.0264 11.82439,0.77144 15.77662,1.90108 63.84455,1.98533 66.09713,0.11586 1.95018,-1.61851 2.25483,-9.10892 0.44413,-10.91962 -0.87112,-0.87112 -8.24849,-1.2 -26.91821,-1.2 -14.14502,0 -26.43002,-0.27314 -27.3,-0.60699 C 226.2693,555.6801 226,553.66427 226,544.34338 l 0,-11.23338 26.49885,-0.62383 c 15.67126,-0.36893 27.31653,-1.06144 28.5,-1.69481 2.70043,-1.44523 2.88668,-9.47562 0.25115,-10.82871 -4.43437,-2.27661 -50.65687,-1.858 -71.10209,0.64394 -7.70396,0.94276 -7.58513,1.12787 -8.62328,-13.43276 l -0.72132,-10.11691 2.43246,-0.61051 c 9.74624,-2.44615 56.70156,-3.83099 78.26423,-2.30822 15.91108,1.12364 19.23512,2.05711 23.58254,6.62252 4.44603,4.66896 6.37729,11.10646 6.30905,21.03003 -0.0588,8.55076 -1.55156,14.04427 -5.11084,18.80846 l -2.47172,3.30847 2.48802,3.69153 c 3.66019,5.4307 4.99762,10.65266 5.03503,19.65911 0.0592,14.24201 -4.80211,23.02522 -14.0655,25.41318 -10.06286,2.59405 -44.65431,3.67465 -64.76658,2.02324 z m 52.5,-5.76541 c 17.48493,-1.29063 20.50139,-4.47493 20.49805,-21.63858 -0.002,-11.66187 -1.66729,-16.22227 -7.0912,-19.42246 -4.3349,-2.55765 -4.29214,-4.16492 0.202,-7.59276 5.27149,-4.02077 7.34281,-9.36768 7.36919,-19.02289 0.0175,-6.39408 -0.43823,-8.93872 -2.22804,-12.44146 -3.62805,-7.10025 -5.65734,-8.02715 -19.82807,-9.05669 -22.00064,-1.5984 -69.56869,-0.57147 -75.29389,1.6255 -1.41238,0.54198 -1.66478,1.74583 -1.42254,6.78482 l 0.2945,6.12594 13,-0.5 c 26.81284,-1.03126 58.7946,-0.54902 62.37301,0.94051 7.60189,3.16433 8.17322,17.17313 0.86664,21.2498 -1.54446,0.86173 -9.99973,1.41413 -27.23965,1.77965 l -25,0.53004 0,6 0,6 25,0.51331 c 17.48038,0.35891 25.67365,0.8942 27.23965,1.77964 6.85965,3.87857 6.85965,17.63934 0,21.36377 -3.25086,1.76505 -39.11903,2.33289 -58.799,0.93087 -18.53372,-1.32036 -17.9012,-1.55167 -17.92534,6.55542 -0.0117,3.92778 0.38647,5.29719 1.68506,5.79551 0.9352,0.35887 9.3727,1.10496 18.75,1.65797 9.3773,0.55302 17.49963,1.20626 18.04963,1.45165 1.18153,0.52717 24.56834,-0.30739 39.5,-1.40956 z m 76.91667,6.48084 c -0.22917,-0.20931 -9.40565,-0.92279 -20.39217,-1.5855 -10.98653,-0.66271 -20.77403,-1.63228 -21.75,-2.1546 C 318.11423,590.78151 318,587.72764 318,544.23081 l 0,-46.48957 2.33304,-0.88702 c 7.33481,-2.78869 62.40435,-4.32987 86.19241,-2.41219 14.17823,1.14298 18.57638,2.89366 22.90975,9.11922 2.82235,4.05474 3.01464,4.98948 3.80577,18.5 1.15769,19.77049 0.0147,55.04991 -1.94186,59.93997 -1.90106,4.75121 -7.15125,9.40995 -12.03253,10.67703 -7.34451,1.9065 -55.73015,4.21138 -57.34991,2.73191 z m 44.83093,-6.4672 c 12.04405,-0.81182 14.36702,-1.74837 18.69061,-7.5355 1.96452,-2.6295 2.07607,-4.25429 2.36447,-34.43821 0.16648,-17.42318 0.0318,-33.15063 -0.29932,-34.94989 -0.96364,-5.23655 -5.72915,-9.83348 -11.77365,-11.35717 -7.39643,-1.86448 -70.81255,-1.86821 -82.97971,-0.005 l -8.75,1.34001 0,42.28013 0,42.28014 2.75,0.59653 c 1.5125,0.3281 10.4,1.07218 19.75,1.65351 9.35,0.58134 17.675,1.24635 18.5,1.4778 1.7847,0.50071 25.91392,-0.27521 41.7476,-1.34247 z m -52.04736,-14.2158 c -5.93987,-0.42577 -11.45237,-1.31575 -12.25,-1.97772 -2.15041,-1.78468 -2.15559,-55.12842 -0.006,-56.91282 2.04159,-1.69436 29.22557,-3.11977 45.55529,-2.38872 23.43171,1.04899 23.2739,0.82109 22.81748,32.95145 l -0.31748,22.34984 -2.69544,2.69349 c -2.44168,2.43991 -3.66561,2.76609 -13,3.46458 -12.3666,0.92538 -25.50492,0.86638 -40.10432,-0.1801 z m 48.98327,-7.18953 c 1.55967,-1.5613 1.75127,-4.1047 1.75127,-23.24689 0,-19.14242 -0.19159,-21.68557 -1.75131,-23.24689 -1.55757,-1.55916 -4.4923,-1.78605 -26.52679,-2.05083 -15.32814,-0.18419 -25.80836,0.095 -27.48421,0.73215 l -2.70875,1.02986 0.26814,23.75855 0.26814,23.75855 3,0.66539 c 1.65,0.36597 13.89725,0.59516 27.21612,0.50931 21.61862,-0.13935 24.40396,-0.34413 25.96739,-1.9092 z M 476,594.82393 c -3.575,-0.43968 -9.2,-0.85453 -12.5,-0.92188 -8.79839,-0.17958 -13.49872,-1.80708 -17.58254,-6.088 -4.44203,-4.65643 -6.29795,-10.92205 -6.23279,-21.042 0.0557,-8.6493 1.47959,-14.03013 4.9391,-18.66459 2.8817,-3.86042 2.92189,-4.51293 0.41753,-6.77934 -4.78635,-4.33159 -6.9723,-21.56887 -4.05612,-31.98445 1.72293,-6.15368 7.16697,-11.97759 12.51482,-13.38806 6.60014,-1.74075 38.52915,-3.52568 50.66747,-2.83247 21.57636,1.23221 40.3451,2.65107 43.21777,3.26715 l 2.88524,0.61877 -0.66382,9.14084 c -0.3651,5.02746 -0.92321,10.58825 -1.24024,12.35732 -0.64518,3.60015 0.11696,3.54412 -16.55797,1.21727 -3.68036,-0.51356 -18.83571,-0.93375 -33.67857,-0.93375 -30.29938,0 -30.12988,-0.0396 -30.12988,7.03624 0,2.84683 0.52821,4.17608 1.96502,4.94504 1.12015,0.59949 12.72885,1.3284 27,1.69535 l 25.03498,0.6437 0,11.23285 c 0,9.32039 -0.26931,11.33619 -1.58179,11.83983 -0.86998,0.33385 -12.14956,0.60699 -25.06574,0.60699 -14.27574,0 -24.24239,0.4059 -25.41821,1.03518 -2.35084,1.25813 -2.69701,8.05921 -0.52097,10.23525 2.83542,2.83543 53.20065,2.74103 72.4253,-0.13574 6.52114,-0.97582 6.62507,-0.79887 7.66304,13.04563 0.66467,8.86546 0.57043,9.71075 -1.18746,10.65154 -4.35411,2.33025 -59.53457,4.77308 -72.31417,3.20133 z m 50.07746,-5.97181 c 8.0176,-0.54545 15.35013,-1.28823 16.2945,-1.65062 1.41238,-0.54198 1.66478,-1.74583 1.42254,-6.78482 l -0.2945,-6.12594 -12.5,0.5 c -24.79124,0.99165 -59.36082,0.5074 -62.70642,-0.8784 -5.51895,-2.28602 -7.7214,-9.76858 -4.87824,-16.57323 2.3544,-5.63486 3.77265,-5.94568 29.08466,-6.37409 15.76108,-0.26676 23.23123,-0.74886 23.73469,-1.53178 0.40408,-0.62837 0.73468,-2.9425 0.73468,-5.1425 0,-2.2 -0.3306,-4.51413 -0.73468,-5.1425 -0.50346,-0.78292 -7.97361,-1.26502 -23.73469,-1.53178 -25.31201,-0.42841 -26.73026,-0.73923 -29.08466,-6.37409 -2.84606,-6.81159 -0.64446,-14.26693 4.90482,-16.60937 3.74774,-1.58198 55.60852,-1.6821 66.91088,-0.12918 4.46256,0.61315 7.07445,0.58143 7.75,-0.0941 0.56043,-0.56043 1.01896,-3.58082 1.01896,-6.71197 0,-4.39898 -0.38017,-5.8389 -1.67254,-6.33483 -5.58469,-2.14304 -54.53347,-3.19738 -76.16993,-1.64066 -13.00908,0.93599 -15.26725,2.02212 -18.9759,9.12704 -2.04372,3.9153 -2.27053,5.50766 -1.91453,13.44146 0.47291,10.53905 2.49504,15.57209 7.42508,18.48089 4.21452,2.48662 4.18224,4.42753 -0.12053,7.24806 -5.03926,3.30331 -6.8344,7.79356 -7.30455,18.27105 -0.356,7.9338 -0.12919,9.52616 1.91453,13.44146 3.88869,7.44981 5.65738,8.19138 21.97909,9.21522 7.88661,0.49472 14.78928,1.10925 15.33928,1.36564 1.25615,0.58555 22.43452,-0.15861 41.57746,-1.46094 z"
         id="path2876" />
    </g>
  </g>
</svg>
